<?xml version="1.0" encoding="UTF-8" standalone="no"?><!DOCTYPE svg PUBLIC "-//W3C//DTD SVG 1.1//EN" "http://www.w3.org/Graphics/SVG/1.1/DTD/svg11.dtd"><svg width="100%" height="100%" viewBox="0 0 14 14" version="1.1" xmlns="http://www.w3.org/2000/svg" xmlns:xlink="http://www.w3.org/1999/xlink" xml:space="preserve" xmlns:serif="http://www.serif.com/" style="fill-rule:evenodd;clip-rule:evenodd;stroke-linejoin:round;stroke-miterlimit:2;"><rect id="back-arrow" x="0" y="0" width="13.333" height="13.333" style="fill:none;"/><path d="M1.084,5.702l4.692,-4.692c0.52,-0.52 1.365,-0.52 1.886,0c0.52,0.52 0.52,1.365 0,1.886l-2.438,2.437l6.104,0c0.736,0 1.334,0.598 1.334,1.334c0,0.736 -0.598,1.333 -1.334,1.333l-6.104,0l2.438,2.438c0.52,0.52 0.52,1.365 0,1.885c-0.521,0.521 -1.366,0.521 -1.886,0l-4.692,-4.691c-0.007,-0.007 -0.015,-0.015 -0.022,-0.022c-0.198,-0.198 -0.32,-0.443 -0.368,-0.698l-0.003,-0.018l-0.001,-0.004c-0.007,-0.044 -0.012,-0.089 -0.015,-0.135l-0.001,-0.011l-0.001,-0.017l-0.001,-0.012l0,-0.016l0,-0.008l0,-0.007l0,-0.017l0,-0.018l0,-0.017l0,-0.014l0.001,-0.016l0.001,-0.012l0.001,-0.012c0.003,-0.045 0.008,-0.09 0.015,-0.135l0.003,-0.016l0.001,-0.005c0.048,-0.256 0.17,-0.501 0.368,-0.698c0.007,-0.008 0.015,-0.015 0.022,-0.022Z" style="fill:#ebebeb;"/></svg>