<?xml version="1.0" encoding="UTF-8"?>
<svg width="24px" height="19px" viewBox="0 0 24 19" version="1.1" xmlns="http://www.w3.org/2000/svg" xmlns:xlink="http://www.w3.org/1999/xlink">
    <title>Combined Shape</title>
    <g id="Page-1" stroke="none" stroke-width="1" fill="none" fill-rule="evenodd">
        <g id="Desktop-HD-Copy-2" transform="translate(-381.000000, -36.000000)" fill="#FFCE00">
            <path d="M394.089977,36.992916 C394.324503,37.1453582 394.524445,37.3453001 394.676887,37.5798265 L403.991515,51.9100233 C404.593493,52.8361425 404.330724,54.0749097 403.404605,54.6768872 C403.080184,54.8877606 402.70156,55 402.314628,55 L383.685372,55 C382.580803,55 381.685372,54.1045695 381.685372,53 C381.685372,52.6130682 381.797612,52.2344438 382.008485,51.9100233 L391.323113,37.5798265 C391.92509,36.6537073 393.163857,36.3909385 394.089977,36.992916 Z M393,51 C392.447715,51 392,51.4477153 392,52 C392,52.5522847 392.447715,53 393,53 C393.552285,53 394,52.5522847 394,52 C394,51.4477153 393.552285,51 393,51 Z M393,41 C392.447715,41 392,41.4477153 392,42 L392,42 L392,49 C392,49.5522847 392.447715,50 393,50 C393.552285,50 394,49.5522847 394,49 L394,49 L394,42 C394,41.4477153 393.552285,41 393,41 Z" id="Combined-Shape"></path>
        </g>
    </g>
</svg>