<?xml version="1.0" encoding="UTF-8" standalone="no"?><!DOCTYPE svg PUBLIC "-//W3C//DTD SVG 1.1//EN" "http://www.w3.org/Graphics/SVG/1.1/DTD/svg11.dtd"><svg width="100%" height="100%" viewBox="0 0 14 14" version="1.1" xmlns="http://www.w3.org/2000/svg" xmlns:xlink="http://www.w3.org/1999/xlink" xml:space="preserve" xmlns:serif="http://www.serif.com/" style="fill-rule:evenodd;clip-rule:evenodd;stroke-linejoin:round;stroke-miterlimit:2;"><rect id="Arrow-Icon" serif:id="Arrow Icon" x="0" y="0" width="13.333" height="13.333" style="fill:none;"/><path d="M10.302,1.667c0.01,0 0.02,0 0.031,0c0.28,0 0.539,0.086 0.754,0.233l0.014,0.01l0.004,0.003c0.036,0.026 0.072,0.054 0.106,0.084l0.009,0.008l0.012,0.011l0.009,0.008l0.012,0.011l0.005,0.006l0.006,0.005l0.012,0.012l0.012,0.012l0.012,0.012l0.009,0.01l0.011,0.012l0.009,0.01l0.007,0.008c0.03,0.035 0.058,0.07 0.084,0.107l0.01,0.013l0.003,0.005c0.147,0.214 0.234,0.474 0.234,0.753c0,0.011 0,0.021 -0.001,0.032l0,6.635c0,0.736 -0.597,1.333 -1.333,1.333c-0.736,0 -1.333,-0.597 -1.333,-1.333l0,-3.448l-5.448,5.448c-0.52,0.52 -1.365,0.52 -1.885,0c-0.521,-0.521 -0.521,-1.366 0,-1.886l5.447,-5.447l-3.447,0c-0.736,0 -1.334,-0.598 -1.334,-1.334c0,-0.736 0.598,-1.333 1.334,-1.333l6.635,0Z" /></svg>