<?xml version="1.0" encoding="UTF-8" standalone="no"?><!DOCTYPE svg PUBLIC "-//W3C//DTD SVG 1.1//EN" "http://www.w3.org/Graphics/SVG/1.1/DTD/svg11.dtd"><svg width="100%" height="100%" viewBox="0 0 14 14" version="1.1" xmlns="http://www.w3.org/2000/svg" xmlns:xlink="http://www.w3.org/1999/xlink" xml:space="preserve" xmlns:serif="http://www.serif.com/" style="fill-rule:evenodd;clip-rule:evenodd;stroke-linejoin:round;stroke-miterlimit:2;"><rect id="forward-arrow" x="0" y="0" width="13.333" height="13.333" style="fill:none;"/><path d="M8.109,5.333l-2.437,-2.437c-0.521,-0.521 -0.521,-1.366 0,-1.886c0.52,-0.52 1.365,-0.52 1.885,0l4.692,4.692c0.008,0.007 0.015,0.014 0.022,0.022c0.198,0.197 0.321,0.442 0.368,0.698l0.003,0.017l0.001,0.004c0.008,0.045 0.013,0.09 0.016,0.135l0.001,0.012l0,0.017l0.001,0.011l0,0.016l0.001,0.008l0,0.008l0,0.017l0,0.017l-0.001,0.017l0,0.014l-0.001,0.016l0,0.013l-0.001,0.011c-0.003,0.046 -0.008,0.091 -0.016,0.135l-0.003,0.016l-0.001,0.006c-0.047,0.255 -0.17,0.5 -0.368,0.698c-0.007,0.007 -0.014,0.015 -0.022,0.022l-4.692,4.691c-0.52,0.521 -1.365,0.521 -1.885,0c-0.521,-0.52 -0.521,-1.365 0,-1.885l2.437,-2.438l-6.104,0c-0.736,0 -1.333,-0.597 -1.333,-1.333c0,-0.736 0.597,-1.334 1.333,-1.334l6.104,0Z" style="fill:#ebebeb;"/></svg>